<svg height="479pt" viewBox="-3 0 479 479.99237" width="479pt" xmlns="http://www.w3.org/2000/svg"><path d="m88.496094 56h304v376h-304zm0 0" fill="#ebebeb"/><path d="m360.496094 168h-152c-4.417969 0-8 3.582031-8 8v144c0 4.417969 3.582031 8 8 8h152c4.417968 0 8-3.582031 8-8v-144c0-4.417969-3.582032-8-8-8zm-144 64h88v32h-88zm104 0h32v32h-32zm32-48v32h-32v-32zm-136 0h88v32h-88zm0 96h88v32h-88zm136 32h-32v-32h32zm0 0" fill="#dbdbdb"/><path d="m24.496094 176h176c8.835937 0 16 7.164062 16 16v256c0 8.835938-7.164063 16-16 16h-176c-8.835938 0-16-7.164062-16-16v-256c0-8.835938 7.164062-16 16-16zm0 0" fill="#6cbae5"/><path d="m40.496094 208h144v48h-144zm0 0" fill="#3bd6d0"/><path d="m40.496094 208h136v40h-136zm0 0" fill="#41dfd0"/><path d="m40.496094 288h144v144h-144zm0 0" fill="#ea9d2d"/><path d="m40.496094 288h40v40h-40zm0 0" fill="#f3af3e"/><path d="m40.496094 336h40v40h-40zm0 0" fill="#f3af3e"/><path d="m40.496094 384h40v40h-40zm0 0" fill="#f3af3e"/><path d="m88.496094 384h96v48h-96zm0 0" fill="#ee8a24"/><path d="m88.496094 384h88v40h-88zm0 0" fill="#fd9226"/><path d="m336.496094 432c0 22.089844-17.910156 40-40 40s-40-17.910156-40-40 17.910156-40 40-40 40 17.910156 40 40zm0 0" fill="#b5e7ea"/><path d="m320.496094 424c0 17.671875-14.328125 32-32 32s-32-14.328125-32-32 14.328125-32 32-32 32 14.328125 32 32zm0 0" fill="#c0f5f9"/><path d="m160.496094 88h184c8.835937 0 16 7.164062 16 16s-7.164063 16-16 16h-184zm0 0" fill="#d9d9d9"/><path d="m359.929688 108c-1.820313-7.042969-8.160157-11.972656-15.433594-12h-184v24h184c7.273437-.027344 13.613281-4.957031 15.433594-12zm0 0" fill="#cdcdcd"/><path d="m120.496094 104 40 16v-32zm0 0" fill="#d9d9d9"/><path d="m160.496094 120v-24l-30 12zm0 0" fill="#cdcdcd"/><path d="m160.496094 88h48v32h-48zm0 0" fill="#c95c57"/><path d="m160.496094 96h48v24h-48zm0 0" fill="#b6534f"/><path d="m392.496094 56h-304c-13.253906 0-24-10.746094-24-24s10.746094-24 24-24h304zm0 0" fill="#f3f3f3"/><path d="m384.496094 8c-6.59375-.007812-12.902344 2.695312-17.441406 7.480469-4.539063 4.78125-6.914063 11.222656-6.558594 17.808593 1.15625 13.066407 12.246094 22.996094 25.359375 22.710938h38.640625v-32c0-8.835938-7.164063-16-16-16zm0 0" fill="#dcdcdc"/><path d="m424.496094 432h-32v-424h16c8.835937 0 16 7.164062 16 16zm0 0" fill="#dcdcdc"/><path d="m336.496094 344h32v16h-32zm0 0" fill="#dbdbdb"/><path d="m288.496094 344h32v16h-32zm0 0" fill="#dbdbdb"/><path d="m240.496094 344h32v16h-32zm0 0" fill="#dbdbdb"/><path d="m48.496094 136h16v16h-16zm0 0" fill="#fbedbf"/><path d="m48.496094 104h16v16h-16zm0 0" fill="#fbedbf"/><path d="m48.496094 72h16v16h-16zm0 0" fill="#fbedbf"/><g fill="#f3af3e"><path d="m88.496094 288h40v40h-40zm0 0"/><path d="m88.496094 336h40v40h-40zm0 0"/><path d="m136.496094 288h40v40h-40zm0 0"/><path d="m136.496094 336h40v40h-40zm0 0"/></g><path d="m88.496094 56h304v16h-304zm0 0" fill="#e6e6e6"/><path d="m448.496094 432c0 22.089844-17.910156 40-40 40s-40-17.910156-40-40 17.910156-40 40-40 40 17.910156 40 40zm0 0" fill="#b5e7ea"/><path d="m432.496094 424c0 17.671875-14.328125 32-32 32s-32-14.328125-32-32 14.328125-32 32-32 32 14.328125 32 32zm0 0" fill="#c0f5f9"/><path d="m464.496094 424h-8.71875c-3.882813-23.085938-23.871094-39.992188-47.28125-39.992188s-43.398438 16.90625-47.28125 39.992188h-17.4375c-3.882813-23.085938-23.871094-39.992188-47.28125-39.992188s-43.398438 16.90625-47.28125 39.992188h-8.71875c-4.417969 0-8 3.582031-8 8s3.582031 8 8 8h8.71875c3.882812 23.085938 23.871094 39.992188 47.28125 39.992188s43.398437-16.90625 47.28125-39.992188h17.4375c3.882812 23.085938 23.871094 39.992188 47.28125 39.992188s43.398437-16.90625 47.28125-39.992188h8.71875c4.417968 0 8-3.582031 8-8s-3.582032-8-8-8zm-168 40c-17.671875 0-32-14.328125-32-32s14.328125-32 32-32 32 14.328125 32 32-14.328125 32-32 32zm112 0c-17.671875 0-32-14.328125-32-32s14.328125-32 32-32 32 14.328125 32 32-14.328125 32-32 32zm0 0" fill="#4799cf"/><path d="m328.496094 80c4.417968 0 8 3.582031 8 8v16h-16v-16c0-4.417969 3.582031-8 8-8zm0 0" fill="#c95c57"/><path d="m312.496094 152h-32c-4.417969 0-8-3.582031-8-8s3.582031-8 8-8h32c4.417968 0 8-3.582031 8-8v-32c0-4.417969 3.582031-8 8-8 4.417968 0 8 3.582031 8 8v32c0 13.253906-10.746094 24-24 24zm0 0" fill="#b6534f"/><path d="m24.496094 472h176c13.253906 0 24-10.746094 24-24v-8h24.71875c3.882812 23.085938 23.871094 39.992188 47.28125 39.992188s43.398437-16.90625 47.28125-39.992188h17.4375c3.882812 23.085938 23.871094 39.992188 47.28125 39.992188s43.398437-16.90625 47.28125-39.992188h8.71875c4.417968 0 8-3.582031 8-8s-3.582032-8-8-8h-8.71875c-2.398438-14.070312-10.929688-26.347656-23.28125-33.503906v-366.496094c0-13.253906-10.746094-24-24-24h-320c-16.09375-.0195312-29.6875 11.9375-31.71875 27.90625-2.03125 15.964844 8.132812 30.945312 23.71875 34.957031v105.136719h-56c-13.253906 0-24 10.746094-24 24v256c0 13.253906 10.746094 24 24 24zm200-160v-32h80v32zm128-48h-32v-32h32zm-48 0h-80v-32h80zm16 16h32v32h-32zm32-64h-32v-32h32zm-48 0h-80v-24c-.027344-2.730469-.523438-5.4375-1.472656-8h81.472656zm-8 248c-17.671875 0-32-14.328125-32-32s14.328125-32 32-32 32 14.328125 32 32-14.328125 32-32 32zm112 0c-17.671875 0-32-14.328125-32-32s14.328125-32 32-32 32 14.328125 32 32-14.328125 32-32 32zm8-440v360.71875c-5.289063-.957031-10.710938-.957031-16 0v-328.71875c0-4.417969-3.582032-8-8-8h-8c-8.835938 0-16-7.164062-16-16s7.164062-16 16-16h24c4.417968 0 8 3.582031 8 8zm-344 8c0-8.835938 7.164062-16 16-16h268.449218c-5.933593 9.84375-5.933593 22.15625 0 32h-268.449218c-8.835938 0-16-7.164062-16-16zm24 32h288v326.496094c-12.351563 7.15625-20.882813 19.433594-23.28125 33.503906h-17.4375c-3.882813-23.085938-23.871094-39.992188-47.28125-39.992188s-43.398438 16.90625-47.28125 39.992188h-24.71875v-96h136c4.417968 0 8-3.582031 8-8v-144c0-4.417969-3.582032-8-8-8h-264zm-80 128c0-4.417969 3.582031-8 8-8h176c4.417968 0 8 3.582031 8 8v256c0 4.417969-3.582032 8-8 8h-176c-4.417969 0-8-3.582031-8-8zm0 0"/><path d="m40.496094 264h144c4.417968 0 8-3.582031 8-8v-48c0-4.417969-3.582032-8-8-8h-144c-4.417969 0-8 3.582031-8 8v48c0 4.417969 3.582031 8 8 8zm8-48h128v32h-128zm0 0"/><path d="m40.496094 440h144c4.417968 0 8-3.582031 8-8v-144c0-4.417969-3.582032-8-8-8h-144c-4.417969 0-8 3.582031-8 8v144c0 4.417969 3.582031 8 8 8zm136-64h-32v-32h32zm-48 0h-32v-32h32zm-48 0h-32v-32h32zm-32 16h32v32h-32zm48 32v-32h80v32zm80-96h-32v-32h32zm-48 0h-32v-32h32zm-80-32h32v32h-32zm0 0"/><path d="m320.496094 128c0 4.417969-3.582032 8-8 8h-32c-4.417969 0-8 3.582031-8 8s3.582031 8 8 8h32c13.253906 0 24-10.746094 24-24h8c13.253906 0 24-10.746094 24-24s-10.746094-24-24-24h-184c-.113282 0-.199219.054688-.304688.0625-.914062.015625-1.816406.183594-2.671875.503906l-40 16c-3.042969 1.214844-5.039062 4.160156-5.039062 7.433594s1.996093 6.21875 5.039062 7.433594l40 16c.949219.375 1.957031.566406 2.976563.566406zm-104-16v-16h104v16zm136-8c0 4.417969-3.582032 8-8 8h-8v-16h8c4.417968 0 8 3.582031 8 8zm-200-4.183594v8.367188l-10.464844-4.183594zm16 12.183594v-16h32v16zm0 0"/><path d="m336.496094 344h32v16h-32zm0 0"/><path d="m288.496094 344h32v16h-32zm0 0"/><path d="m240.496094 344h32v16h-32zm0 0"/><path d="m48.496094 136h16v16h-16zm0 0"/><path d="m48.496094 104h16v16h-16zm0 0"/><path d="m48.496094 72h16v16h-16zm0 0"/></svg>